<svg width="48" height="48" viewBox="0 0 48 48" fill="none" xmlns="http://www.w3.org/2000/svg">
<g clip-path="url(#clip0_653_33)">
<path d="M41.0938 13.0796C37.3487 9.17857 32.4779 7.07908 27.0113 7.00513C24.5159 7.04318 21.1948 8.05093 19.3712 13.3756C19.1933 13.8974 19.4711 14.4673 19.993 14.6453C20.5149 14.8193 21.0828 14.5453 21.2627 14.0234C22.4185 10.6462 24.262 9.00264 26.8973 9.00264H26.9833C31.9741 9.06862 36.237 10.9062 39.6522 14.4613C43.6612 18.6343 46.1506 25.1147 45.9926 30.9693C45.7347 40.6569 39.6981 45.9936 28.9968 45.9936C23.5241 45.9936 19.6151 42.8765 17.2997 40.261C13.5086 35.9821 11.805 30.6554 11.9929 29.1198C12.0688 28.5019 12.2209 27.918 12.4449 27.3822C12.6568 26.8723 12.4169 26.2865 11.907 26.0745C11.3991 25.8606 10.8113 26.1025 10.5993 26.6124C10.3054 27.3162 10.1055 28.0781 10.0095 28.8778C9.73954 31.0912 11.6451 36.8918 15.802 41.5867C19.513 45.7756 24.076 47.9931 28.9968 47.9931C40.7799 47.9931 47.7022 41.8086 47.9922 31.0293C48.162 24.6648 45.4547 17.6205 41.0938 13.0796Z" fill="#777C65"/>
<path d="M16.1104 26.5904C16.0424 26.9383 16.0024 27.2961 16.0024 27.6641C16.0024 30.8073 19.5616 34.4484 23.4686 35.3062C25.552 35.7641 26.9458 35.9921 27.9036 35.9921C28.8714 35.9921 29.3951 35.7582 29.7291 35.2903C30.3789 34.3866 29.7551 33.3488 29.0333 32.1491C28.2834 30.9034 27.3517 29.3538 27.3517 27.6642C27.3517 24.7189 25.0822 22.3195 22.2029 22.0516C22.181 20.9659 21.7911 19.9081 21.0572 19.0743L5.15703 1.0307C4.6331 0.416787 3.86528 0.044878 3.05548 0.00888675C2.24962 -0.0211059 1.44787 0.278821 0.869953 0.846714C-0.131803 1.83254 -0.283828 3.38812 0.494107 4.52185L13.5289 24.6769C14.1328 25.6066 15.0546 26.2705 16.1104 26.5904ZM21.2232 24.0509C21.2292 24.0509 21.2352 24.043 21.2412 24.043C21.3851 24.025 21.527 23.999 21.6751 23.999C23.7026 23.999 25.3522 25.6446 25.3522 27.6661C25.3522 29.9116 26.4899 31.801 27.3197 33.1808C27.4717 33.4367 27.6576 33.7447 27.7956 34.0005C27.2377 33.9825 26.122 33.8446 23.8946 33.3566C20.6293 32.6388 18 29.6576 18 27.6661C18 27.1502 18.11 26.6583 18.3039 26.2124L18.3058 26.2104C18.4258 25.9365 18.5838 25.6866 18.7637 25.4525C18.7917 25.4165 18.8217 25.3826 18.8517 25.3466C19.4395 24.6448 20.2834 24.167 21.2232 24.0509ZM2.27174 2.27024C2.44775 2.09835 2.67964 2.00434 2.92764 2.00434H2.96963C3.2315 2.01437 3.46947 2.13031 3.64746 2.33829L19.5556 20.3958C20.0015 20.9017 20.2314 21.5495 20.2154 22.2113C20.2054 22.2133 20.1954 22.2194 20.1834 22.2233C19.8455 22.3154 19.5235 22.4333 19.2137 22.5833C19.1897 22.5953 19.1697 22.6093 19.1457 22.6192C18.8557 22.7652 18.5778 22.9292 18.3179 23.1211C18.2579 23.165 18.2039 23.217 18.144 23.2631C17.9319 23.433 17.728 23.6069 17.542 23.8049C17.45 23.9009 17.3741 24.0088 17.2901 24.1108C17.1521 24.2807 17.0142 24.4488 16.8942 24.6347C16.8723 24.6687 16.8442 24.6946 16.8222 24.7287C16.1523 24.5667 15.5805 24.1708 15.2046 23.5889L2.15973 3.40996C1.91379 3.05605 1.96178 2.57223 2.27174 2.27024Z" fill="#777C65"/>
<path d="M30.9971 11.0022C28.7916 11.0022 26.998 12.7958 26.998 15.0013C26.998 17.2067 28.7916 19.0003 30.9971 19.0003C33.2026 19.0003 34.9962 17.2067 34.9962 15.0013C34.9961 12.7937 33.2025 11.0022 30.9971 11.0022ZM30.9971 17.0007C29.8953 17.0007 28.9976 16.103 28.9976 15.0013C28.9976 13.8995 29.8953 13.0018 30.9971 13.0018C32.0989 13.0018 32.9966 13.8995 32.9966 15.0013C32.9966 16.103 32.0989 17.0007 30.9971 17.0007Z" fill="#777C65"/>
<path d="M35.9961 31.9971C35.9961 34.2026 37.7897 35.9962 39.9951 35.9962C42.2005 35.9962 43.9942 34.2026 43.9942 31.9971C43.9942 29.7916 42.2006 27.998 39.9951 27.998C37.7897 27.998 35.9961 29.7896 35.9961 31.9971ZM41.9946 31.9971C41.9946 33.0989 41.0969 33.9966 39.9951 33.9966C38.8934 33.9966 37.9957 33.0989 37.9957 31.9971C37.9957 30.8953 38.8934 29.9976 39.9951 29.9976C41.0968 29.9975 41.9946 30.8934 41.9946 31.9971Z" fill="#777C65"/>
<path d="M37.9952 18.0005C35.7897 18.0005 33.9961 19.794 33.9961 21.9995C33.9961 24.205 35.7897 25.9985 37.9952 25.9985C40.2006 25.9985 41.9942 24.2049 41.9942 21.9995C41.9942 19.7921 40.2006 18.0005 37.9952 18.0005ZM37.9952 23.999C36.8934 23.999 35.9957 23.1013 35.9957 21.9995C35.9957 20.8978 36.8934 20.0001 37.9952 20.0001C39.0968 20.0001 39.9946 20.8978 39.9946 21.9995C39.9946 23.1013 39.0969 23.999 37.9952 23.999Z" fill="#777C65"/>
</g>
<defs>
<clipPath id="clip0_653_33">
<rect width="48" height="48" fill="white"/>
</clipPath>
</defs>
</svg>
