<svg width="48" height="48" viewBox="0 0 48 48" fill="none" xmlns="http://www.w3.org/2000/svg">
<g clip-path="url(#clip0_653_32)">
<path d="M19.2976 6.88185C15.1042 2.69059 6.89824 2.20459 1.0898 2.20459C0.488251 2.20459 0 2.69274 0 3.29429C0 9.10273 0.483858 17.3087 4.67726 21.5022C6.44708 23.272 9.16061 24.0632 11.8501 24.0632C14.7729 24.0632 17.6695 23.1282 19.2976 21.5001C22.4209 18.3767 22.9942 10.5762 19.2976 6.88185ZM17.7567 19.9612C15.4246 22.2911 8.94922 22.69 6.22047 19.9612C2.83562 16.5765 2.24928 9.69999 2.18604 4.39063C7.4954 4.45387 14.3719 5.0401 17.7566 8.42496C20.4855 11.1537 20.0866 17.6313 17.7567 19.9612Z" fill="#777C65"/>
<path d="M46.9105 6.51562C41.102 6.51562 32.896 6.99948 28.7025 11.1929C25.0061 14.8872 25.5792 22.6878 28.7025 25.8111C30.3307 27.4371 33.2251 28.3721 36.1479 28.3721C38.8374 28.3721 41.5488 27.5831 43.3229 25.8133C47.5141 21.6199 48.0002 13.414 48.0002 7.60543C48.0003 7.00388 47.512 6.51562 46.9105 6.51562ZM41.7776 24.2701C39.0489 26.9989 32.5713 26.6 30.2414 24.2701C27.9115 21.9402 27.5126 15.4626 30.2414 12.7339C33.6262 9.34899 40.5026 8.76276 45.812 8.69952C45.7488 14.011 45.1625 20.8875 41.7776 24.2701Z" fill="#777C65"/>
<path d="M39.0391 15.9487C38.782 15.4016 38.0453 15.2143 37.5026 15.467C29.1441 19.3967 25.0378 26.2492 23.172 33.2934C20.8639 18.3156 14.188 13.7495 11.3568 11.8119C11.0037 11.57 10.7291 11.3935 10.5765 11.2431C10.1515 10.8181 9.46056 10.8181 9.03555 11.2431C8.61054 11.6681 8.61054 12.359 9.03555 12.784C9.25133 12.9977 9.62403 13.2658 10.1275 13.6101C13.3183 15.7918 21.7945 21.5916 21.7945 44.7056C21.7945 45.3071 22.2828 45.7954 22.8843 45.7954C23.4859 45.7954 23.9742 45.3071 23.9742 44.7078C23.9742 35.3685 26.4828 23.0563 38.431 17.4418C38.431 17.4396 38.6076 17.3568 38.6076 17.3568C39.1503 17.0995 39.2963 16.4936 39.0391 15.9487Z" fill="#777C65"/>
</g>
<defs>
<clipPath id="clip0_653_32">
<rect width="48" height="48" fill="white"/>
</clipPath>
</defs>
</svg>
