<svg width="48" height="48" viewBox="0 0 48 48" fill="none" xmlns="http://www.w3.org/2000/svg">
<g clip-path="url(#clip0_653_31)">
<path d="M19.0093 30H4.2874C3.7714 30 3.28737 29.8301 2.8954 29.522L2.83137 29.43C2.74333 29.3021 2.6314 29.202 2.5054 29.13C2.45543 29.066 2.40743 28.998 2.36337 28.926C1.94937 28.254 1.9114 27.432 2.2654 26.726L5.90337 19.446C6.09537 19.062 6.01933 18.596 5.7154 18.2921L3.4234 16.0001H14.0094C14.5614 16.0001 15.0094 15.552 15.0094 15C15.0094 14.448 14.5614 14 14.0094 14H1.00933C0.605365 14 0.239365 14.244 0.0853341 14.618C-0.0686971 14.992 0.0173654 15.42 0.301334 15.708L3.79137 19.1981L0.475334 25.832C-0.190666 27.162 -0.120635 28.712 0.661334 29.978C0.867303 30.316 1.11733 30.616 1.39933 30.876L8.3973 40.9841C9.70333 42.8741 11.8573 44.0001 14.1533 44.0001H19.0092C19.5612 44.0001 20.0093 43.5521 20.0093 43.0001V31.0001C20.0094 30.4481 19.5613 30 19.0093 30ZM18.0094 42H14.1534C12.5134 42 10.9753 41.1941 10.0434 39.846L4.6114 32H18.0094V42Z" fill="#777C65"/>
<path d="M46.5759 29.178C46.1279 28.862 45.4999 28.974 45.1859 29.43L37.9758 39.846C37.0419 41.194 35.5039 42 33.8638 42H31.0078C30.4558 42 30.0078 42.448 30.0078 43C30.0078 43.552 30.4558 44.0001 31.0078 44.0001H33.8638C36.1599 44.0001 38.3118 42.874 39.6198 40.9861L46.8299 30.5701C47.1439 30.116 47.0319 29.492 46.5759 29.178Z" fill="#777C65"/>
<path d="M47.5179 25.7921L42.8799 17.5121C42.7459 17.2761 42.5239 17.1041 42.2638 17.0341C41.9958 16.9661 41.7219 17.0041 41.4918 17.144L36.4918 20.144C36.0178 20.428 35.8618 21.0421 36.1479 21.5161C36.4339 21.9901 37.0539 22.1441 37.5199 21.8581L41.6379 19.388L45.7519 26.726C46.1059 27.4321 46.0679 28.2541 45.6539 28.9261C45.2379 29.5981 44.5198 30.0001 43.7299 30.0001H31.0078C30.4558 30.0001 30.0078 30.4481 30.0078 31.0001C30.0078 31.5521 30.4558 32.0001 31.0078 32.0001H43.7298C45.2178 32.0001 46.5738 31.2441 47.3538 29.9801C48.1359 28.7141 48.2059 27.164 47.5179 25.7921Z" fill="#777C65"/>
<path d="M38.8106 30.4001L35.8106 26.4001C35.4765 25.9561 34.8525 25.8701 34.4106 26.2001C33.9686 26.5321 33.8786 27.1582 34.2086 27.6001L37.2086 31.6001C37.4046 31.8622 37.7066 32.0002 38.0085 32.0002C38.2166 32.0002 38.4285 31.9342 38.6085 31.8002C39.0506 31.4681 39.1406 30.8421 38.8106 30.4001Z" fill="#777C65"/>
<path d="M14.8008 30.4001L11.8008 26.4001C11.4668 25.9561 10.8428 25.8701 10.4008 26.2001C9.9588 26.5321 9.8688 27.1582 10.1988 27.6001L13.1988 31.6001C13.3948 31.8622 13.6968 32.0002 13.9988 32.0002C14.2068 32.0002 14.4188 31.9342 14.5988 31.8002C15.0408 31.4681 15.1308 30.8421 14.8008 30.4001Z" fill="#777C65"/>
<path d="M10.5999 18.8008L14.5999 15.8008C15.0439 15.4668 15.1299 14.8428 14.7999 14.4008C14.4679 13.9588 13.8418 13.8688 13.3999 14.1988L9.39987 17.1988C9.13784 17.3948 8.99984 17.6968 8.99984 17.9988C8.99984 18.2068 9.06584 18.4188 9.19981 18.5988C9.53187 19.0408 10.1579 19.1308 10.5999 18.8008Z" fill="#777C65"/>
<path d="M41.6878 4.26797C41.3818 3.98194 40.9359 3.91594 40.5598 4.104L37.3498 5.71003L35.0278 2.226C34.0978 0.832031 32.5438 0 30.8679 0H19.0078C18.4558 0 18.0078 0.448031 18.0078 1.00003C18.0078 1.55203 18.4558 2.00006 19.0078 2.00006H30.8679C31.8739 2.00006 32.8039 2.50003 33.3619 3.33609L36.1739 7.55409C36.4559 7.97606 37.006 8.11613 37.4539 7.89413L39.0499 7.09613L35.0839 16.6141C34.8739 17.1241 35.1139 17.7101 35.6239 17.9221C35.7479 17.9761 35.8799 18.0001 36.0079 18.0001C36.3979 18.0001 36.7719 17.7681 36.9299 17.3841L41.9299 5.38406C42.0898 4.998 41.9938 4.554 41.6878 4.26797Z" fill="#777C65"/>
<path d="M30.2038 15.016L28.0638 14.5881L29.4558 13.8921C29.7138 13.762 29.9058 13.528 29.9778 13.2481C30.0498 12.9681 29.9977 12.6701 29.8338 12.4321L23.2898 2.91198C22.0618 1.12595 20.1138 0.0759518 17.9458 0.0319831C15.8678 -0.00401692 13.7918 0.955983 12.4898 2.68998L8.20777 8.40001C8.03377 8.63204 7.96777 8.92801 8.0318 9.21198C8.0918 9.49595 8.27377 9.73998 8.5298 9.87601L19.5298 15.876C19.9658 16.12 20.5258 15.994 20.8217 15.58L25.2798 9.34004L27.5317 12.618L24.5597 14.104C24.1777 14.296 23.9597 14.7081 24.0178 15.132C24.0737 15.556 24.3918 15.896 24.8118 15.98L29.8117 16.98C29.8777 16.994 29.9437 17 30.0097 17C30.4758 17 30.8917 16.672 30.9897 16.1919C31.0978 15.65 30.7458 15.124 30.2038 15.016ZM19.7098 13.698L10.5017 8.67601L14.0897 3.88998C14.9977 2.67798 16.3597 1.98601 17.9038 2.03195C19.4198 2.06392 20.7797 2.79798 21.6398 4.04598L24.0758 7.58795L19.7098 13.698Z" fill="#777C65"/>
<path d="M31.0059 42.0001C30.4539 42.0001 30.0059 42.4482 30.0059 43.0002V44.3682L24.2838 37.9302L28.8218 31.5802C29.1418 31.1322 29.0398 30.5062 28.5898 30.1862C28.1398 29.8662 27.5138 29.9682 27.1937 30.4182L22.1938 37.4183C21.9218 37.7983 21.9518 38.3163 22.2598 38.6643L30.2597 47.6643C30.4537 47.8823 30.7277 48.0003 31.0078 48.0003C31.1258 48.0003 31.2478 47.9783 31.3618 47.9343C31.7498 47.7884 32.0057 47.4164 32.0057 47.0003V43.0003C32.0059 42.4482 31.5579 42.0001 31.0059 42.0001Z" fill="#777C65"/>
</g>
<defs>
<clipPath id="clip0_653_31">
<rect width="48" height="48" fill="white"/>
</clipPath>
</defs>
</svg>
