<svg width="48" height="48" viewBox="0 0 48 48" fill="none" xmlns="http://www.w3.org/2000/svg">
<path d="M24 4.17383C10.5423 4.17383 0 10.1321 0 17.739V30.2608C0 37.8677 10.5423 43.826 24 43.826C37.4577 43.826 48 37.8677 48 30.2608V17.739C48 10.1321 37.4577 4.17383 24 4.17383ZM45.913 30.2608C45.913 36.482 35.8779 41.739 24 41.739C12.1221 41.739 2.08696 36.482 2.08696 30.2608V23.3592C5.8007 28.0841 14.1099 31.3043 24 31.3043C33.8901 31.3043 42.1993 28.0841 45.913 23.3592V30.2608ZM24 29.2173C12.1221 29.2173 2.08696 23.9603 2.08696 17.739C2.08696 11.5178 12.1221 6.26078 24 6.26078C35.8779 6.26078 45.913 11.5178 45.913 17.739C45.913 23.9603 35.8779 29.2173 24 29.2173Z" fill="#777C65"/>
<path d="M24.0003 10.4348C14.4817 10.4348 7.30469 13.5746 7.30469 17.7392C7.30469 21.9037 14.4817 25.0435 24.0003 25.0435C33.5189 25.0435 40.696 21.9037 40.696 17.7392C40.696 13.5746 33.5189 10.4348 24.0003 10.4348ZM24.0003 22.9566C15.3916 22.9566 9.39164 20.207 9.39164 17.7392C9.39164 15.2713 15.3916 12.5218 24.0003 12.5218C32.609 12.5218 38.609 15.2713 38.609 17.7392C38.609 20.207 32.609 22.9566 24.0003 22.9566Z" fill="#777C65"/>
</svg>
