<svg width="48" height="48" viewBox="0 0 48 48" fill="none" xmlns="http://www.w3.org/2000/svg">
<g clip-path="url(#clip0_653_36)">
<path d="M22 4.99997C22 2.24316 19.7568 0 16.9999 0C14.243 0 12 2.24316 12 4.99997V36.1318C10.7236 37.4404 10 39.1904 10 41C10 44.8594 13.1406 48 17 48C20.8593 48 24 44.8594 24 41C24 39.1904 23.2763 37.4404 22 36.1318V4.99997ZM16.9999 46C14.2431 46 12 43.7569 12 41.0001C12 39.5841 12.5928 38.2696 13.6699 37.2998C13.8799 37.1094 14 36.8399 14 36.5567V4.99997C14 3.34566 15.3457 1.99997 17 1.99997C18.6543 1.99997 20 3.34566 20 4.99997V36.5566C20 36.8398 20.1201 37.1093 20.3301 37.2998C21.4073 38.2695 22.0001 39.584 22.0001 41C22 43.7569 19.7568 46 16.9999 46Z" fill="#777C65"/>
<path d="M18 38.1842V21C18 20.4473 17.5528 20 17 20C16.4472 20 16 20.4473 16 21V38.1842C14.8385 38.5984 14 39.698 14 41C14 42.6543 15.3457 44 17 44C18.6543 44 20 42.6543 20 41C20 39.698 19.1615 38.5984 18 38.1842ZM17 42C16.4483 42 16 41.5518 16 41C16 40.4483 16.4482 40 17 40C17.5517 40 18 40.4482 18 41C18 41.5518 17.5518 42 17 42Z" fill="#777C65"/>
<path d="M7.00003 32H1.00003C0.447281 32 0 32.4473 0 33C0 33.5528 0.447281 34.0001 1.00003 34.0001H7.00003C7.55278 34.0001 8.00006 33.5528 8.00006 33C8.00006 32.4473 7.55278 32 7.00003 32Z" fill="#777C65"/>
<path d="M1.00003 22.0001H7.00003C7.55278 22.0001 8.00006 21.5528 8.00006 21C8.00006 20.4473 7.55278 20 7.00003 20H1.00003C0.447281 20 0 20.4473 0 21C0 21.5528 0.447281 22.0001 1.00003 22.0001Z" fill="#777C65"/>
<path d="M1.00003 10.0001H7.00003C7.55278 10.0001 8.00006 9.55278 8.00006 9.00003C8.00006 8.44728 7.55278 8 7.00003 8H1.00003C0.447281 8 0 8.44728 0 9.00003C0 9.55278 0.447281 10.0001 1.00003 10.0001Z" fill="#777C65"/>
<path d="M30.9999 16H32.9998C34.6542 16 35.9998 17.3457 35.9998 19C35.9998 19.5527 36.4471 20 36.9999 20C37.5526 20 37.9999 19.5527 37.9999 19C37.9999 16.2432 35.7568 14 32.9999 14H31C28.2432 14 26 16.2432 26 19V26.9999C26 29.7567 28.2432 31.9999 31 31.9999H32.9998C35.7567 31.9999 37.9998 29.7567 37.9998 26.9999C37.9998 26.4472 37.5525 25.9999 36.9998 25.9999C36.447 25.9999 35.9998 26.4472 35.9998 26.9999C35.9998 28.6542 34.6542 29.9999 32.9998 29.9999H30.9999C29.3456 29.9999 27.9999 28.6542 27.9999 26.9999V19C27.9999 17.3457 29.3456 16 30.9999 16Z" fill="#777C65"/>
<path d="M43 14C41.3457 14 40 15.3457 40 17C40 18.6543 41.3457 20 43 20C44.6543 20 46 18.6543 46 17C46 15.3458 44.6543 14 43 14ZM43 18C42.4483 18 42 17.5518 42 17C42 16.4483 42.4482 16 43 16C43.5518 16 44 16.4482 44 17C43.9999 17.5518 43.5517 18 43 18Z" fill="#777C65"/>
</g>
<defs>
<clipPath id="clip0_653_36">
<rect width="48" height="48" fill="white"/>
</clipPath>
</defs>
</svg>
