<svg width="48" height="48" viewBox="0 0 48 48" fill="none" xmlns="http://www.w3.org/2000/svg">
<path d="M24.8585 10.8856C24.4683 10.32 23.5332 10.32 23.141 10.8856C22.2686 12.1503 14.6094 23.3782 14.6094 28.174C14.6094 33.3518 18.823 37.5654 24.0007 37.5654C29.1785 37.5654 33.3921 33.3518 33.3921 28.174C33.3921 23.3782 25.733 12.1503 24.8585 10.8856ZM24.0007 35.4785C19.9729 35.4785 16.6963 32.2019 16.6963 28.174C16.6963 25.0436 21.3753 17.3176 24.0007 13.344C26.6261 17.3154 31.3052 25.0414 31.3052 28.174C31.3052 32.2018 28.0287 35.4785 24.0007 35.4785Z" fill="#777C65"/>
<path d="M24.0007 31.3043C22.2747 31.3043 20.8702 29.8998 20.8702 28.1739C20.8702 27.5979 20.4027 27.1304 19.8267 27.1304C19.2507 27.1304 18.7832 27.5979 18.7832 28.1739C18.7832 31.0497 21.1248 33.3913 24.0006 33.3913C24.5766 33.3913 25.0441 32.9238 25.0441 32.3478C25.0442 31.7719 24.5767 31.3043 24.0007 31.3043Z" fill="#777C65"/>
<path d="M24.0001 4.17383C13.0685 4.17383 4.17383 13.0685 4.17383 24.0001C4.17383 34.9317 13.0685 43.8264 24.0001 43.8264C34.9317 43.8264 43.8264 34.9317 43.8264 24.0001C43.8264 13.0685 34.9317 4.17383 24.0001 4.17383ZM24.0001 41.7393C14.2185 41.7393 6.26087 33.7817 6.26087 24.0001C6.26087 14.2185 14.2185 6.26077 24.0001 6.26077C33.7817 6.26077 41.7393 14.2184 41.7393 24C41.7393 33.7816 33.7818 41.7393 24.0001 41.7393Z" fill="#777C65"/>
<path d="M11.1734 26.3939L5.95599 21.1765C5.73481 20.9573 5.44054 20.8551 5.11497 20.8759C4.80398 20.9052 4.52224 21.0742 4.34909 21.335L0.175112 27.596C-0.144194 28.076 -0.0147696 28.7229 0.465169 29.0422C0.644681 29.1612 0.84503 29.2175 1.04323 29.2175C1.37926 29.2175 1.71109 29.0547 1.91144 28.7542L5.37999 23.5514L9.69797 27.8694C10.1049 28.2763 10.7665 28.2763 11.1735 27.8694C11.5803 27.4623 11.5803 26.8008 11.1734 26.3939Z" fill="#777C65"/>
<path d="M47.535 18.9578C47.0529 18.6385 46.406 18.7679 46.0888 19.2479L42.6202 24.4507L38.3022 20.1327C37.8953 19.7258 37.2337 19.7258 36.8267 20.1327C36.4197 20.5397 36.4197 21.2013 36.8267 21.6082L42.0441 26.8256C42.2424 27.0218 42.5074 27.1304 42.7829 27.1304C42.8162 27.1304 42.8518 27.1283 42.8851 27.1241C43.1961 27.0949 43.4779 26.9258 43.651 26.665L47.825 20.4041C48.1445 19.9241 48.0151 19.2771 47.535 18.9578Z" fill="#777C65"/>
</svg>
