<svg width="16" height="16" viewBox="0 0 16 16" fill="none" xmlns="http://www.w3.org/2000/svg">
<path d="M8 4.18834C6.61897 4.18834 5.49544 5.30984 5.49544 6.68834C5.49544 8.06684 6.619 9.18834 8 9.18834C9.381 9.18834 10.5046 8.06684 10.5046 6.68834C10.5046 5.30984 9.38103 4.18834 8 4.18834ZM8 7.93834C7.30822 7.93834 6.74544 7.37759 6.74544 6.68834C6.74544 5.99909 7.30825 5.43834 8 5.43834C8.69175 5.43834 9.25456 5.99909 9.25456 6.68834C9.25456 7.37759 8.69178 7.93834 8 7.93834ZM14.7031 6.68834C14.7031 3.00037 11.6961 0 8 0C4.30387 0 1.29688 3.00037 1.29688 6.68834V6.69037V6.69588C1.29688 11.2832 4.65119 14.7249 7.77056 15.9563C7.91794 16.0145 8.08203 16.0145 8.22947 15.9563C10.7552 14.9593 14.7031 11.8135 14.7031 6.69591C14.7031 6.69509 14.7031 6.69388 14.7031 6.6925C14.7031 6.691 14.7031 6.68956 14.7031 6.68834ZM13.4531 6.69969C13.4516 10.3893 11.068 13.2468 7.99931 14.6917C4.95197 13.2627 2.54841 10.4 2.54688 6.69956C2.54691 6.69709 2.54691 6.69462 2.54691 6.69212L2.54688 6.68744C2.54747 3.68922 4.9935 1.25 8 1.25C11.0056 1.25 13.451 3.68781 13.4531 6.68478C13.4531 6.68737 13.4531 6.69003 13.4531 6.69212C13.4531 6.69466 13.4531 6.69716 13.4531 6.69969Z" fill="#777C65"/>
</svg>
