<svg width="16" height="16" viewBox="0 0 16 16" fill="none" xmlns="http://www.w3.org/2000/svg">
<path d="M15.3913 3.69693L8.32603 0.117021L8.32309 0.115552C8.0085 -0.0410731 7.63469 -0.0375731 7.32303 0.124927L4.29275 1.73318C4.26813 1.74361 4.24447 1.75627 4.22181 1.77083L0.5905 3.69808C0.22625 3.8888 0 4.26249 0 4.67377V11.3263C0 11.7376 0.22625 12.1112 0.5905 12.302L7.32003 15.8736L7.32306 15.8752C7.482 15.9581 7.65716 15.9996 7.83234 15.9996C8.00062 15.9996 8.16897 15.9613 8.32309 15.8845L15.3913 12.3031C15.7668 12.1154 16 11.7381 16 11.3182V4.68193C16 4.26196 15.7668 3.88468 15.3913 3.69693ZM7.75741 0.955333C7.80331 0.931771 7.85813 0.931302 7.90444 0.954021L14.5178 4.30496L11.944 5.58636L5.47837 2.1649L7.75741 0.955333ZM7.357 14.8322L1.02844 11.4734L1.02541 11.4718C0.971 11.4434 0.937156 11.3877 0.937156 11.3263V5.09665L7.357 8.44427V14.8322ZM7.83053 7.63427L1.446 4.30505L4.478 2.6959L10.9116 6.10036L7.83053 7.63427ZM15.0628 11.3181C15.0628 11.3808 15.0279 11.4371 14.9718 11.4651L8.29419 14.8486V8.4503L11.3687 6.91961V8.52446C11.3687 8.78324 11.5786 8.99305 11.8373 8.99305C12.0961 8.99305 12.3059 8.78324 12.3059 8.52446V6.45302L15.0628 5.08052V11.3181Z" fill="#777C65"/>
</svg>
