<svg width="16" height="16" viewBox="0 0 16 16" fill="none" xmlns="http://www.w3.org/2000/svg">
<g clip-path="url(#clip0_775_7700)">
<path d="M15.8325 7.59562L14.6902 6.45329L8.40419 0.167318C8.18105 -0.0557829 7.8193 -0.0557829 7.59616 0.167318L1.31015 6.45329L0.167259 7.59622C-0.0519919 7.82324 -0.0457305 8.185 0.181288 8.40425C0.402749 8.61814 0.753824 8.61814 0.975285 8.40425L1.14213 8.23623V15.4285C1.14213 15.7442 1.39798 16 1.7136 16H14.2856C14.6012 16 14.857 15.7442 14.857 15.4285V8.23623L15.0245 8.40368C15.2515 8.62293 15.6132 8.61663 15.8325 8.38965C16.0464 8.16819 16.0464 7.81708 15.8325 7.59562ZM9.71396 14.8571H6.28525V10.2855H9.71396V14.8571ZM13.7141 14.8571H10.8569V9.71403C10.8569 9.39841 10.601 9.14256 10.2854 9.14256H5.71378C5.39816 9.14256 5.14232 9.39841 5.14232 9.71403V14.8571H2.28506V7.09333L7.99957 1.37879L13.7141 7.09333V14.8571Z" fill="#777C65"/>
</g>
<defs>
<clipPath id="clip0_775_7700">
<rect width="16" height="16" fill="white"/>
</clipPath>
</defs>
</svg>
