<svg width="25" height="24" viewBox="0 0 25 24" fill="none" xmlns="http://www.w3.org/2000/svg">
<g clip-path="url(#clip0_1512:4237)">
<path d="M24.2254 22.3993L17.4542 15.6281C20.5392 11.8746 20.3293 6.30257 16.8237 2.79698H16.8237C13.0944 -0.93235 7.02628 -0.932303 3.297 2.79698C-0.432332 6.52631 -0.432332 12.5943 3.297 16.3237C6.80165 19.8283 12.3729 20.0405 16.1281 16.9542L22.8993 23.7254C23.2656 24.0916 23.8592 24.0915 24.2254 23.7254C24.5916 23.3592 24.5916 22.7654 24.2254 22.3993ZM15.4976 14.9976C12.4995 17.9957 7.62117 17.9956 4.62309 14.9976C1.62496 11.9994 1.62496 7.12115 4.62309 4.12303C7.62112 1.12499 12.4994 1.12485 15.4976 4.12303C18.4957 7.12115 18.4957 11.9994 15.4976 14.9976Z" fill="#A3AC9A"/>
</g>
<defs>
<clipPath id="clip0_1512:4237">
<rect width="24" height="24" fill="white" transform="translate(0.5)"/>
</clipPath>
</defs>
</svg>
