<svg width="16" height="16" viewBox="0 0 16 16" fill="none" xmlns="http://www.w3.org/2000/svg">
<path d="M14.9038 4.41576L14.8919 4.39529C14.8755 4.36126 14.8566 4.32867 14.8354 4.2977L12.6095 0.449376C12.4492 0.172188 12.1507 0 11.8305 0H4.16993C3.84921 0 3.55046 0.172594 3.39018 0.450532L1.12798 4.3751C1.10761 4.41048 1.09292 4.44748 1.08255 4.48507C1.0507 4.57104 1.0332 4.66395 1.0332 4.76088V14.8973C1.0332 15.5053 1.52786 16 2.13586 16H13.8641C14.4721 16 14.9668 15.5053 14.9668 14.8973V4.72373C14.9668 4.71013 14.9664 4.69663 14.9657 4.6832C14.972 4.59298 14.9525 4.49995 14.9038 4.41576ZM8.48497 0.937846H11.8087L13.5597 3.96513H8.48497V0.937846ZM4.19177 0.937846H7.54712V3.96513H2.44677L4.19177 0.937846ZM14.0289 14.8973C14.0289 14.9882 13.955 15.0622 13.8641 15.0622H2.13586C2.04499 15.0622 1.97105 14.9882 1.97105 14.8973V4.90298H14.0289V14.8973Z" fill="#777C65"/>
<path d="M10.1282 8.43835C9.94513 8.25525 9.64819 8.25525 9.46507 8.43835L7.37125 10.5322L6.56613 9.72703C6.38303 9.54394 6.08609 9.54394 5.90297 9.72703C5.71984 9.91013 5.71984 10.2071 5.90297 10.3902L7.03972 11.5269C7.13128 11.6184 7.25132 11.6643 7.37128 11.6643C7.49125 11.6643 7.61132 11.6184 7.70285 11.5269L10.1282 9.1015C10.3114 8.91838 10.3114 8.62147 10.1282 8.43835Z" fill="#777C65"/>
</svg>
