<svg width="16" height="16" viewBox="0 0 16 16" fill="none" xmlns="http://www.w3.org/2000/svg">
<path d="M14.2857 0H1.71428C0.767511 0 0 0.767511 0 1.71428V14.2857C0 15.2325 0.767511 16 1.71428 16H14.2857C15.2325 16 16 15.2325 16 14.2857V1.71428C16 0.767511 15.2325 0 14.2857 0ZM14.8571 14.2857C14.8571 14.6013 14.6013 14.8572 14.2857 14.8572H1.71428C1.39868 14.8572 1.14285 14.6013 1.14285 14.2857V1.71428C1.14285 1.39868 1.39868 1.14285 1.71428 1.14285H14.2857C14.6013 1.14285 14.8572 1.39868 14.8572 1.71428V14.2857H14.8571Z" fill="#777C65"/>
<path d="M5.14314 3.42856H3.42886C3.11326 3.42856 2.85742 3.68439 2.85742 4C2.85742 4.3156 3.11326 4.57143 3.42886 4.57143H5.14314C5.45874 4.57143 5.71458 4.3156 5.71458 4C5.71458 3.68439 5.45874 3.42856 5.14314 3.42856Z" fill="#777C65"/>
<path d="M12.5717 3.42856H7.42886C7.11326 3.42856 6.85742 3.68439 6.85742 4C6.85742 4.3156 7.11326 4.57143 7.42886 4.57143H12.5717C12.8873 4.57143 13.1432 4.3156 13.1432 4C13.1432 3.68439 12.8873 3.42856 12.5717 3.42856Z" fill="#777C65"/>
<path d="M5.14314 7.42857H3.42886C3.11326 7.42857 2.85742 7.68441 2.85742 8.00001C2.85742 8.31562 3.11326 8.57142 3.42886 8.57142H5.14314C5.45874 8.57142 5.71458 8.31558 5.71458 7.99998C5.71458 7.68438 5.45874 7.42857 5.14314 7.42857Z" fill="#777C65"/>
<path d="M12.5717 7.42857H7.42886C7.11326 7.42857 6.85742 7.68441 6.85742 8.00001C6.85742 8.31562 7.11326 8.57142 7.42886 8.57142H12.5717C12.8873 8.57142 13.1432 8.31558 13.1432 7.99998C13.1432 7.68438 12.8873 7.42857 12.5717 7.42857Z" fill="#777C65"/>
<path d="M5.14314 11.4286H3.42886C3.11326 11.4286 2.85742 11.6844 2.85742 12C2.85742 12.3156 3.11326 12.5714 3.42886 12.5714H5.14314C5.45874 12.5714 5.71458 12.3156 5.71458 12C5.71458 11.6844 5.45874 11.4286 5.14314 11.4286Z" fill="#777C65"/>
<path d="M12.5717 11.4286H7.42886C7.11326 11.4286 6.85742 11.6844 6.85742 12C6.85742 12.3156 7.11326 12.5714 7.42886 12.5714H12.5717C12.8873 12.5714 13.1432 12.3156 13.1432 12C13.1432 11.6844 12.8873 11.4286 12.5717 11.4286Z" fill="#777C65"/>
</svg>
