<svg width="16" height="16" viewBox="0 0 16 16" fill="none" xmlns="http://www.w3.org/2000/svg">
<path d="M12.25 16H3.75C1.68225 16 0 14.3177 0 12.25V3.75C0 1.68225 1.68225 0 3.75 0H12.25C14.3177 0 16 1.68225 16 3.75V12.25C16 14.3177 14.3177 16 12.25 16ZM3.75 1.25C2.3715 1.25 1.25 2.3715 1.25 3.75V12.25C1.25 13.6285 2.3715 14.75 3.75 14.75H12.25C13.6285 14.75 14.75 13.6285 14.75 12.25V3.75C14.75 2.3715 13.6285 1.25 12.25 1.25H3.75ZM10.2017 13.0309C9.93906 13.0309 9.675 12.9681 9.43062 12.8409L8.19219 12.1964C8.07181 12.1338 7.92816 12.1337 7.80778 12.1964L6.56938 12.8409C6.00338 13.1355 5.33206 13.0847 4.81734 12.7084C4.30837 12.3363 4.05881 11.7207 4.16603 11.1017L4.40253 9.73662C4.42459 9.60919 4.3815 9.47881 4.28725 9.38787L3.28534 8.42109C2.29684 7.48334 2.85562 5.78837 4.20291 5.60831L5.5875 5.40912C5.72103 5.38991 5.836 5.30778 5.895 5.18947L6.51422 3.94747C7.10597 2.73197 8.89425 2.73241 9.48572 3.94747L10.1049 5.18944C10.1639 5.30778 10.2789 5.38991 10.4124 5.40912L11.797 5.60831C13.1448 5.7885 13.7028 7.48375 12.7146 8.42106L11.7127 9.38787C11.6184 9.47881 11.5753 9.60919 11.5974 9.73659L11.8339 11.1017C11.9412 11.7207 11.6916 12.3363 11.1826 12.7084C10.8902 12.9222 10.5472 13.0309 10.2017 13.0309ZM8 10.8996C8.26425 10.8996 8.52841 10.9622 8.76928 11.0876L10.0077 11.7321C10.2145 11.8397 10.3823 11.745 10.4449 11.6993C10.5047 11.6556 10.6397 11.5307 10.6023 11.3151L10.3658 9.95C10.2729 9.41381 10.4519 8.86738 10.8448 8.48834L11.8467 7.52156C12.0062 7.36756 11.9713 7.18928 11.9489 7.11981C11.9258 7.04831 11.8474 6.87841 11.6191 6.84559L10.2345 6.64641C9.69491 6.56881 9.22831 6.23266 8.98628 5.74719L8.36712 4.50525C8.21859 4.20522 7.78191 4.20469 7.63294 4.50525L7.01375 5.74722C6.77175 6.23266 6.30513 6.56881 5.76556 6.64641L4.38097 6.84559C4.15262 6.87844 4.07431 7.04831 4.05119 7.11981C4.02875 7.18931 3.99378 7.36759 4.15341 7.52159L5.15531 8.48834C5.54813 8.86741 5.72719 9.41381 5.63425 9.95003L5.39775 11.3151C5.36041 11.5307 5.49538 11.6556 5.55513 11.6993C5.61769 11.745 5.78547 11.8397 5.99241 11.7321L7.23078 11.0876C7.47153 10.9623 7.73581 10.8996 8 10.8996Z" fill="#777C65"/>
</svg>
