<svg width="16" height="16" viewBox="0 0 16 16" fill="none" xmlns="http://www.w3.org/2000/svg">
<g clip-path="url(#clip0_688_421)">
<path d="M14.2448 14.5011C11.7965 16.4997 4.15188 16.4997 1.75355 14.5011C-0.694731 12.5025 -0.44491 3.95846 1.75355 1.71004C3.95202 -0.538377 12.0463 -0.538377 14.2448 1.71004C16.4433 3.95846 16.6931 12.5025 14.2448 14.5011Z" fill="#407868"/>
<path d="M6.85028 12.4525C6.50051 12.4525 6.15078 12.3026 5.95091 12.0028L3.15289 8.40531C2.75317 7.90567 2.85312 7.20616 3.35276 6.80643C3.8524 6.40671 4.5519 6.50665 4.95163 7.0063L6.85028 9.45458L11.0473 4.00841C11.4471 3.50877 12.1466 3.40882 12.6462 3.80855C13.1459 4.20828 13.2458 4.90778 12.8461 5.40742L7.74965 12.0028C7.49983 12.2526 7.20005 12.4525 6.85028 12.4525Z" fill="#BADCD2"/>
</g>
<defs>
<clipPath id="clip0_688_421">
<rect width="16" height="16" fill="white"/>
</clipPath>
</defs>
</svg>
