<svg width="24" height="24" viewBox="0 0 24 24" fill="none" xmlns="http://www.w3.org/2000/svg">
<path fill-rule="evenodd" clip-rule="evenodd" d="M2.63131 21.7515C6.22879 24.7494 17.6957 24.7494 21.3682 21.7515C25.0406 18.7537 24.6659 5.93762 21.3682 2.56499C18.0705 -0.807635 5.929 -0.807635 2.63131 2.56499C-0.666388 5.93762 -1.04112 18.7536 2.63131 21.7515ZM8.92734 18.0042C9.22714 18.4539 9.75174 18.6787 10.2764 18.6787C10.8011 18.6787 11.2507 18.3789 11.6254 18.0042L19.2701 8.11117C19.8697 7.36171 19.7198 6.31245 18.9703 5.71286C18.2208 5.11327 17.1716 5.2632 16.572 6.01266L10.2764 14.1819L7.42842 10.5095C6.82883 9.76002 5.77957 9.6101 5.03011 10.2097C4.28065 10.8093 4.13073 11.8585 4.73032 12.608L8.92734 18.0042Z" fill="#407868"/>
</svg>
