<svg width="24" height="24" viewBox="0 0 24 24" fill="none" xmlns="http://www.w3.org/2000/svg">
<path fill-rule="evenodd" clip-rule="evenodd" d="M2.61568 21.716C6.21317 24.7139 17.6801 24.7139 21.3525 21.716C25.025 18.7181 24.6502 5.9021 21.3525 2.52947C18.0548 -0.843157 5.91337 -0.843157 2.61568 2.52947C-0.682013 5.9021 -1.05674 18.7181 2.61568 21.716ZM13.6005 6.79872C13.6005 5.8244 12.7761 5 11.8018 5C10.7526 5 10.0031 5.74951 10.003 6.79872C10.003 6.79872 9.92806 6.349 10.5277 13.6189C10.6026 14.2934 11.1272 14.8181 11.8018 14.8181C12.4763 14.8181 13.001 14.2934 13.0759 13.6189C13.0759 14.2185 13.6005 7.92291 13.6005 6.79872ZM11.8018 15.7175C10.7526 15.7175 10.0031 16.5419 10.0031 17.5162C10.0031 18.4905 10.7526 19.24 11.8018 19.315C12.8511 19.315 13.6005 18.4906 13.6005 17.5162C13.6005 16.467 12.7761 15.7175 11.8018 15.7175Z" fill="#917C30"/>
</svg>
