<svg width="16" height="16" viewBox="0 0 16 16" fill="none" xmlns="http://www.w3.org/2000/svg">
<circle cx="8" cy="8" r="8" fill="#0069FF"/>
<g clip-path="url(#clip0_565:280)">
<path fill-rule="evenodd" clip-rule="evenodd" d="M3.06269 6.5068C2.77043 6.47975 2.47581 6.5329 2.21932 6.65892C1.96284 6.78495 1.75708 6.97768 1.63033 7.21061C1.50357 7.44354 1.46205 7.70525 1.51147 7.95975C1.56088 8.21426 1.69881 8.44907 1.90629 8.63192C2.11377 8.81476 2.38062 8.93666 2.67015 8.98086C2.95969 9.02506 3.2577 8.98939 3.52323 8.87876C3.78876 8.76812 4.00876 8.58795 4.153 8.36301C4.29725 8.13806 4.35865 7.87939 4.32877 7.62255C4.29588 7.33705 4.15203 7.07022 3.92142 6.867C3.69082 6.66378 3.38755 6.53657 3.06269 6.5068ZM3.01659 8.41096C2.85941 8.42948 2.69957 8.40427 2.55953 8.33887C2.4195 8.27346 2.30631 8.17115 2.23588 8.04631C2.16545 7.92147 2.14132 7.78038 2.16687 7.64287C2.19243 7.50536 2.26639 7.37834 2.37835 7.27967C2.49032 7.18099 2.63467 7.11562 2.79111 7.09274C2.94755 7.06986 3.10822 7.09062 3.25053 7.15211C3.39285 7.21359 3.50966 7.31271 3.58455 7.43553C3.65943 7.55835 3.68863 7.6987 3.66803 7.83685C3.64642 7.98216 3.57088 8.11716 3.45312 8.22095C3.33535 8.32473 3.18193 8.39152 3.01659 8.41096ZM5.08958 6.55624C5.04025 6.55634 4.99156 6.56611 4.94706 6.58483C4.90256 6.60354 4.86337 6.63074 4.83234 6.66444C4.80131 6.69813 4.77922 6.73749 4.76769 6.77963C4.75615 6.82177 4.75545 6.86564 4.76564 6.90805C4.79685 7.04544 4.94292 7.13932 5.10205 7.13932H6.02548L4.58841 8.81011C4.57778 8.82244 4.57127 8.83713 4.56961 8.85253C4.56796 8.86794 4.57121 8.88344 4.57902 8.8973C4.58683 8.91117 4.59888 8.92285 4.61382 8.93104C4.62877 8.93922 4.64601 8.94359 4.66362 8.94365H6.91781C7.07683 8.94365 7.22301 8.8498 7.25422 8.71238C7.26441 8.66998 7.26372 8.62612 7.25219 8.58398C7.24066 8.54184 7.21859 8.50249 7.18757 8.46879C7.15656 8.43509 7.11738 8.40789 7.0729 8.38916C7.02841 8.37043 6.97974 8.36065 6.93041 8.36053H5.80527L7.24125 6.69104C7.25198 6.67858 7.25855 6.66375 7.26022 6.64819C7.26189 6.63264 7.25859 6.61699 7.2507 6.60299C7.24281 6.58899 7.23064 6.5772 7.21554 6.56895C7.20045 6.56069 7.18304 6.55629 7.16526 6.55624H5.08958ZM14.0972 6.56297C14.0226 6.57856 13.9562 6.61606 13.9092 6.66926C13.8621 6.72247 13.8371 6.7882 13.8383 6.85559V7.82639L12.0477 6.57458C12.0337 6.56478 12.0168 6.55867 11.999 6.55695C11.9812 6.55522 11.9631 6.55795 11.947 6.56482C11.9309 6.57169 11.9173 6.58242 11.9078 6.59577C11.8983 6.60913 11.8933 6.62457 11.8933 6.64032V8.64482C11.8921 8.71221 11.9171 8.77794 11.9642 8.83115C12.0113 8.88436 12.0776 8.92186 12.1522 8.93744C12.2007 8.94681 12.2509 8.9465 12.2992 8.93654C12.3475 8.92657 12.3927 8.90721 12.4313 8.87987C12.47 8.85253 12.5012 8.81792 12.5226 8.77859C12.544 8.73925 12.555 8.6962 12.555 8.65261V7.6734L14.3455 8.92524C14.3596 8.93503 14.3765 8.94114 14.3943 8.94286C14.4121 8.94459 14.4301 8.94186 14.4462 8.93499C14.4623 8.92813 14.4759 8.9174 14.4854 8.90405C14.4949 8.8907 14.4999 8.87527 14.4999 8.85952V6.84771C14.5 6.80412 14.4889 6.76109 14.4675 6.72177C14.4461 6.68245 14.4149 6.64785 14.3762 6.62052C14.3376 6.59319 14.2925 6.57384 14.2442 6.56388C14.1959 6.55391 14.1456 6.5536 14.0972 6.56297ZM9.43511 7.08351C10.1925 7.08351 10.7583 7.43513 10.7583 7.74965C10.7583 8.06417 10.1925 8.4158 9.43511 8.4158C8.67776 8.4158 8.11187 8.06417 8.11187 7.74965C8.11187 7.43513 8.67776 7.08351 9.43511 7.08351ZM9.43511 6.50045C8.33888 6.50045 7.45023 7.05974 7.45023 7.74965C7.45023 8.43956 8.33888 8.99885 9.43511 8.99885C10.5313 8.99885 11.42 8.43956 11.42 7.74965C11.42 7.05974 10.5313 6.50045 9.43511 6.50045Z" fill="white"/>
</g>
<defs>
<clipPath id="clip0_565:280">
<rect width="13" height="2.5" fill="white" transform="translate(1.5 6.5)"/>
</clipPath>
</defs>
</svg>
